<svg width="32" height="32" viewBox="0 0 32 32" xmlns="http://www.w3.org/2000/svg">
	<g fill="#23507F">
		<path d="m0,0l32,0l0,32l-32,0l0,-32z"/>
	</g>
	<g  fill="#FFFFFF">
		<path d="m9.67866,3.08322c-1.06323,0 -1.92414,0.85985 -1.92414,1.92573c0,1.06323 0.86091,1.92609 1.92414,1.92609c1.06412,0 1.92414,-0.86286 1.92414,-1.92609c0,-1.06588 -0.86003,-1.92573 -1.92414,-1.92573"/>
		<path d="m22.32,3.08322c-1.06376,0 -1.92361,0.85985 -1.92361,1.92573c0,1.06323 0.85985,1.92609 1.92361,1.92609c1.06075,0 1.92379,-0.86286 1.92379,-1.92609c0,-1.06588 -0.86303,-1.92432 -1.92379,-1.92573"/>
		<path d="m15.99933,1.32602c-1.06323,0 -1.92414,0.85968 -1.92414,1.92591c0,1.06323 0.86091,1.92626 1.92414,1.92626c1.06394,0 1.92379,-0.86303 1.92379,-1.92626c0,-1.06624 -0.85985,-1.92591 -1.92379,-1.92591"/>
		<path d="m26.86879,8.44942c-0.10717,-0.08135 -0.23574,-0.12362 -0.36626,-0.12362c-0.07251,0 -0.14573,0.01326 -0.21505,0.03997c-1.30286,0.49819 -2.62589,0.87648 -3.83343,1.15785c-0.24636,0.05748 -0.44531,0.24034 -0.52773,0.45999c-0.87984,2.40995 -3.12638,4.70478 -5.48346,7.10837c-0.09462,0.08984 -0.22708,0.20833 -0.44283,0.20833c-0.21523,0 -0.34645,-0.11477 -0.44283,-0.20833c-2.35672,-2.40359 -4.60327,-4.69045 -5.48346,-7.10058c-0.08259,-0.21947 -0.28155,-0.40234 -0.52737,-0.45999c-1.20825,-0.28137 -2.53463,-0.67133 -3.83591,-1.16952c-0.06968,-0.02653 -0.1429,-0.03979 -0.21558,-0.03979c-0.13051,0 -0.25679,0.04103 -0.36361,0.12256c-0.16695,0.12733 -0.25361,0.33389 -0.2338,0.53232c0.19949,2.00408 0.99143,3.96324 2.42057,6.01631c1.34336,1.93016 3.09561,3.71688 4.78967,5.44455c3.12143,3.18386 6.07007,6.19086 6.3288,9.67784c0.02335,0.31444 0.28544,0.55832 0.60147,0.55832l3.66719,0c0.16518,0 0.32293,-0.06791 0.437,-0.18764c0.11354,-0.11955 0.17367,-0.28013 0.16535,-0.44531c-0.11531,-2.33125 -0.99267,-4.66587 -2.68213,-7.13648c-0.35406,-0.518 -0.73323,-1.02203 -1.12973,-1.51526c-0.16111,-0.2009 -0.09373,-0.45044 0.02954,-0.57636c0.12185,-0.12468 0.24423,-0.24901 0.36732,-0.3751c1.69424,-1.72784 3.44613,-3.51439 4.78984,-5.44455c1.42896,-2.05325 2.22054,-4.00091 2.42021,-6.00464c0.01998,-0.20144 -0.07144,-0.41507 -0.2338,-0.53922"/>
		<path d="m12.06474,23.15019c-0.08666,-0.09073 -0.21417,-0.18339 -0.42816,-0.18339c-0.27377,0 -0.43612,0.18923 -0.49748,0.28296c-1.5425,2.34735 -2.33921,4.56277 -2.44939,6.78915c-0.00796,0.16412 0.05252,0.32718 0.16606,0.44708c0.11407,0.1192 0.27394,0.18799 0.43877,0.18799l3.661,0c0.31497,0 0.58025,-0.24653 0.60342,-0.56062c0.07976,-1.07296 0.41383,-2.14857 1.02203,-3.27883c0.2108,-0.39102 0.04704,-0.75834 -0.07428,-0.91538c-0.60342,-0.78469 -1.34248,-1.62173 -2.44196,-2.76896"/>
		<path d="m16.0034,10.24605c1.14935,0 1.81591,-0.06897 2.05006,-0.06897c0.28367,0 0.55479,0.23238 0.55479,0.55779c0,0.09497 -0.02246,0.16288 -0.04474,0.22283c-0.15245,0.40747 -0.84712,1.87356 -2.14043,3.13115c-0.14502,0.14113 -0.30949,0.16748 -0.42267,0.16748l-0.00142,0c-0.11301,0 -0.2773,-0.02635 -0.42232,-0.16748c-1.29331,-1.25759 -1.98816,-2.72369 -2.14025,-3.13115c-0.02246,-0.05995 -0.04492,-0.12786 -0.04492,-0.22283c0,-0.32541 0.27147,-0.55779 0.55514,-0.55779c0.23415,0 0.90035,0.06897 2.04918,0.06897l0.00761,0"/>
	</g>
</svg>
