<svg width="256" height="256" xmlns="http://www.w3.org/2000/svg">
	<g fill="#23507F">
		<path d="m0,0l256,0l0,256l-256,0l0,-256z"/>
	</g>
	<g fill="#FFFFFF">
		<path d="m81.92825,33.85881c-7.74912,0 -14.0237,6.26683 -14.0237,14.03529c0,7.74913 6.27458,14.03789 14.0237,14.03789c7.75557,0 14.02371,-6.28876 14.02371,-14.03789c0,-7.76846 -6.26814,-14.03529 -14.02371,-14.03529"/>
		<path d="m174.0619,33.85881c-7.75299,0 -14.01983,6.26683 -14.01983,14.03529c0,7.74913 6.26685,14.03789 14.01983,14.03789c7.73108,0 14.02112,-6.28876 14.02112,-14.03789c0,-7.76846 -6.29004,-14.02498 -14.02112,-14.03529"/>
		<path d="m127.99508,21.05187c-7.74913,0 -14.0237,6.26556 -14.0237,14.0366c0,7.74912 6.27456,14.03916 14.0237,14.03916c7.75428,0 14.02112,-6.29004 14.02112,-14.03916c0,-7.77104 -6.26685,-14.0366 -14.02112,-14.0366"/>
		<path d="m207.21482,72.96921c-0.7811,-0.59291 -1.71815,-0.90097 -2.66939,-0.90097c-0.52847,0 -1.06209,0.09667 -1.56736,0.2913c-9.49565,3.63095 -19.13823,6.38801 -27.93913,8.43871c-1.79551,0.4189 -3.24557,1.75168 -3.84621,3.35254c-6.41249,17.56443 -22.78594,34.28976 -39.96498,51.80779c-0.68959,0.65477 -1.65501,1.51837 -3.22751,1.51837c-1.56865,0 -2.52504,-0.83652 -3.22751,-1.51837c-17.17646,-17.51803 -33.54991,-34.18535 -39.96498,-51.75107c-0.60193,-1.59958 -2.052,-2.93235 -3.84363,-3.35254c-8.80606,-2.05071 -18.47313,-4.89283 -27.95718,-8.52379c-0.50784,-0.19333 -1.04146,-0.29002 -1.57122,-0.29002c-0.95124,0 -1.87154,0.29904 -2.65007,0.89324c-1.21677,0.92805 -1.84835,2.43352 -1.704,3.87972c1.45393,14.6063 7.22581,28.88522 17.64177,43.84856c9.79081,14.06752 22.56166,27.08972 34.90846,39.6814c22.74984,23.20484 44.24039,45.12074 46.12612,70.53483c0.17014,2.29174 2.08035,4.06919 4.3837,4.06919l26.72752,0c1.20387,0 2.35361,-0.49495 3.18498,-1.36757c0.8275,-0.87133 1.26575,-2.04168 1.20516,-3.24555c-0.84038,-16.99084 -7.23483,-34.00619 -19.5481,-52.01273c-2.58047,-3.77531 -5.34397,-7.4488 -8.23378,-11.04366c-1.17423,-1.46423 -0.68313,-3.28293 0.21525,-4.20066c0.88809,-0.9087 1.78004,-1.81484 2.67714,-2.73385c12.34808,-12.59298 25.11635,-25.61388 34.90974,-39.6814c10.41466,-14.96463 16.18396,-29.15977 17.63918,-43.76349c0.14566,-1.46812 -0.52072,-3.02515 -1.70398,-3.92999"/>
		<path d="m99.31868,180.11261c-0.63158,-0.66123 -1.56092,-1.33664 -3.12053,-1.33664c-1.99529,0 -3.17854,1.37917 -3.6258,2.06231c-11.24217,17.10814 -17.04885,33.25474 -17.85186,49.48124c-0.058,1.19614 0.38282,2.38455 1.21031,3.25845c0.83136,0.86875 1.99658,1.37014 3.19787,1.37014l26.68241,0c2.29561,0 4.22903,-1.79678 4.39788,-4.08595c0.58131,-7.82002 3.01613,-15.65936 7.4488,-23.89701c1.53642,-2.84986 0.34285,-5.52698 -0.54136,-6.67156c-4.39788,-5.71903 -9.78437,-11.81961 -17.79773,-20.18098"/>
		<path d="m128.02473,86.06359c8.37684,0 13.23486,-0.50268 14.94143,-0.50268c2.06747,0 4.04342,1.69366 4.04342,4.06533c0,0.69217 -0.1637,1.18712 -0.3261,1.62406c-1.11107,2.96973 -6.17403,13.65506 -15.60008,22.82073c-1.05694,1.02858 -2.25565,1.22063 -3.08058,1.22063l-0.01031,0c-0.82363,0 -2.02106,-0.19206 -3.07801,-1.22063c-9.42604,-9.16568 -14.49029,-19.85101 -15.59879,-22.82073c-0.1637,-0.43694 -0.32739,-0.9319 -0.32739,-1.62406c0,-2.37166 1.97853,-4.06533 4.046,-4.06533c1.70656,0 6.56201,0.50268 14.93498,0.50268l0.05543,0"/>
	</g>
</svg>
