<svg viewBox="0 0 256 256" width="16" height="16" xmlns="http://www.w3.org/2000/svg">
<g>
	<path d="m74.81305,19.31985c-8.94588,0 -16.18949,7.23467 -16.18949,16.20287c0,8.94589 7.24361,16.20587 16.18949,16.20587c8.95332,0 16.1895,-7.25998 16.1895,-16.20587c0,-8.9682 -7.23618,-16.20287 -16.1895,-16.20287" class="icon-color"/>
	<path d="m181.17563,19.31985c-8.95035,0 -16.18502,7.23467 -16.18502,16.20287c0,8.94589 7.23469,16.20587 16.18502,16.20587c8.92505,0 16.18651,-7.25998 16.18651,-16.20587c0,-8.9682 -7.26146,-16.19097 -16.18651,-16.20287" class="icon-color"/>
	<path d="m127.99435,4.53503c-8.94589,0 -16.18949,7.2332 -16.18949,16.20438c0,8.94588 7.24359,16.20734 16.18949,16.20734c8.95183,0 16.18651,-7.26146 16.18651,-16.20734c0,-8.97118 -7.23469,-16.20438 -16.18651,-16.20438" class="icon-color"/>
	<path d="m219.44862,64.47038c-0.90173,-0.68448 -1.9835,-1.04011 -3.08165,-1.04011c-0.61009,0 -1.22612,0.1116 -1.80942,0.33629c-10.96214,4.19171 -22.0939,7.37456 -32.25399,9.74197c-2.0728,0.48359 -3.74681,2.02221 -4.44021,3.8703c-7.40282,20.27704 -26.30495,39.5854 -46.13709,59.80888c-0.79609,0.75589 -1.91061,1.75286 -3.72596,1.75286c-1.81091,0 -2.915,-0.96571 -3.72596,-1.75286c-19.82916,-20.22348 -38.73129,-39.46486 -46.13709,-59.7434c-0.69489,-1.84662 -2.36891,-3.38522 -4.43723,-3.8703c-10.16605,-2.36742 -21.32608,-5.64847 -32.27483,-9.84019c-0.58627,-0.22319 -1.2023,-0.33481 -1.81388,-0.33481c-1.09815,0 -2.16058,0.34522 -3.05934,1.03119c-1.40469,1.07138 -2.13381,2.80935 -1.96716,4.4789c1.67847,16.86207 8.34175,33.34619 20.36633,50.62044c11.30288,16.24008 26.04604,31.2734 40.29965,45.80971c26.26328,26.78855 51.07278,52.08909 53.24974,81.42808c0.19642,2.64567 2.40163,4.69763 5.06071,4.69763l30.85526,0c1.38979,0 2.7171,-0.57139 3.67686,-1.57877c0.9553,-1.0059 1.46123,-2.35699 1.39128,-3.74679c-0.97017,-19.61487 -8.35216,-39.25804 -22.56707,-60.04547c-2.97899,-4.35836 -6.16928,-8.59918 -9.50539,-12.74922c-1.35558,-1.69036 -0.78863,-3.78994 0.24849,-4.8494c1.02524,-1.04904 2.05495,-2.09512 3.09059,-3.15606c14.25509,-14.53781 28.99527,-29.56963 40.30113,-45.80971c12.02308,-17.27574 18.68338,-33.66314 20.36334,-50.52223c0.16816,-1.69485 -0.60114,-3.49235 -1.96714,-4.53693" class="icon-color"/>
	<path d="m94.88922,188.16079c-0.72912,-0.76335 -1.80199,-1.54307 -3.60246,-1.54307c-2.30344,0 -3.66943,1.59217 -4.18576,2.38081c-12.97839,19.75029 -19.68184,38.39053 -20.60886,57.12302c-0.06696,1.38087 0.44194,2.75281 1.39723,3.76168c0.95975,1.00292 2.30493,1.58174 3.69174,1.58174l30.80319,0c2.65014,0 4.88215,-2.07427 5.07708,-4.71698c0.67109,-9.02773 3.48193,-18.07776 8.59918,-27.58761c1.7737,-3.28999 0.3958,-6.38056 -0.62497,-7.7019c-5.07708,-6.60227 -11.29545,-13.64501 -20.54637,-23.29769" class="icon-color"/>
	<path d="m128.02858,79.58703c9.67054,0 15.27882,-0.58031 17.24895,-0.58031c2.38677,0 4.66788,1.95523 4.66788,4.69317c0,0.79907 -0.18898,1.37046 -0.37646,1.87488c-1.28266,3.42837 -7.12753,15.76392 -18.00932,26.34512c-1.22017,1.18743 -2.60401,1.40914 -3.55634,1.40914l-0.0119,0c-0.95083,0 -2.33319,-0.22172 -3.55337,-1.40914c-10.88178,-10.58121 -16.72814,-22.91676 -18.00783,-26.34512c-0.18898,-0.50442 -0.37795,-1.07582 -0.37795,-1.87488c0,-2.73793 2.28409,-4.69317 4.67086,-4.69317c1.97012,0 7.57543,0.58031 17.24151,0.58031l0.06399,0" class="icon-color"/>
</g>
</svg>
